<svg width="48" height="48" viewBox="0 0 48 48" fill="none" xmlns="http://www.w3.org/2000/svg">
<path d="M6.36396 28.9498C3.63029 26.2161 3.63029 21.7839 6.36396 19.0503L19.0503 6.36396C21.7839 3.63029 26.2161 3.63029 28.9497 6.36396L41.636 19.0502C44.3697 21.7839 44.3697 26.2161 41.636 28.9497L28.9498 41.636C26.2161 44.3697 21.7839 44.3697 19.0503 41.636L6.36396 28.9498Z" fill="#FFFF01" stroke="black" stroke-width="2"/>
<path d="M26.114 22.291C26.666 21.739 27.214 20.451 24.914 22.015C21.646 24.27 18.425 26.387 18.425 26.387C18.0934 26.5369 17.735 26.6183 17.3712 26.6262C17.0074 26.6341 16.6457 26.5684 16.308 26.433C14.928 26.019 13.317 25.467 13.317 25.467C13.317 25.467 12.217 24.776 14.1 24.04C14.1 24.04 22.061 20.773 24.822 19.622C25.88 19.162 29.469 17.69 29.469 17.69C29.469 17.69 31.126 17.045 30.988 18.61C30.942 19.254 30.574 21.51 30.206 23.948C29.653 27.399 29.055 31.173 29.055 31.173C29.055 31.173 28.963 32.231 28.181 32.415C27.3439 32.4008 26.535 32.1097 25.881 31.587C25.697 31.449 22.43 29.378 21.233 28.366C21.1112 28.2835 21.0123 28.1716 20.9454 28.0406C20.8785 27.9096 20.8459 27.7638 20.8505 27.6168C20.8551 27.4698 20.8967 27.3264 20.9717 27.1998C21.0466 27.0733 21.1523 26.9677 21.279 26.893C22.939 25.375 24.918 23.488 26.114 22.291Z" fill="black"/>
</svg>
