<svg width="48" height="48" viewBox="0 0 48 48" fill="none" xmlns="http://www.w3.org/2000/svg">
<path d="M6.36396 28.9498C3.63029 26.2161 3.63029 21.7839 6.36396 19.0503L19.0503 6.36396C21.7839 3.63029 26.2161 3.63029 28.9497 6.36396L41.636 19.0502C44.3697 21.7839 44.3697 26.2161 41.636 28.9497L28.9498 41.636C26.2161 44.3697 21.7839 44.3697 19.0503 41.636L6.36396 28.9498Z" fill="#FFFF01" stroke="black" stroke-width="2"/>
<g clip-path="url(#clip0_1_54)">
<rect width="16.9706" height="13.7904" transform="translate(15.3796 16.9713)" fill="#FFFF01"/>
<path d="M30.6125 20.4041C30.6199 20.5535 30.6226 20.7048 30.6226 20.8542C30.6226 25.4565 27.1206 30.7617 20.717 30.7617C18.7497 30.7617 16.9208 30.1852 15.3796 29.1965C15.6526 29.2288 15.9293 29.2454 16.2097 29.2454C17.8422 29.2454 19.3428 28.6883 20.5335 27.7559C19.0107 27.7273 17.7241 26.722 17.2814 25.3385C17.4935 25.3782 17.7121 25.3994 17.9362 25.3994C18.2544 25.3994 18.5625 25.3579 18.8539 25.2785C17.2611 24.9576 16.0612 23.551 16.0612 21.8632C16.0612 21.8485 16.0612 21.8346 16.0612 21.8199C16.5306 22.0809 17.0683 22.2377 17.6383 22.2561C16.704 21.6308 16.0888 20.5665 16.0888 19.3573C16.0888 18.72 16.2604 18.1214 16.5611 17.6067C18.2775 19.7142 20.8443 21.0995 23.7376 21.2453C23.6785 20.9898 23.6481 20.7251 23.6481 20.4511C23.6481 18.529 25.2059 16.9713 27.1289 16.9713C28.1306 16.9713 29.0353 17.3927 29.6708 18.0697C30.4631 17.9129 31.2083 17.6233 31.8816 17.2249C31.6215 18.0374 31.069 18.72 30.3506 19.1507C31.0552 19.0658 31.7248 18.8804 32.3501 18.6028C31.8835 19.3019 31.2932 19.9144 30.6125 20.4041V20.4041Z" fill="black"/>
</g>
<defs>
<clipPath id="clip0_1_54">
<rect width="16.9706" height="13.7904" fill="white" transform="translate(15.3796 16.9713)"/>
</clipPath>
</defs>
</svg>
